HIERARCHY
ROOT Hips
{
	OFFSET 0.000000 0.000000 0.000000
	CHANNELS 6 Xposition Yposition Zposition Zrotation Yrotation Xrotation 
	JOINT LHipJoint
	{
		OFFSET 0.000000 0.000000 0.000000
		CHANNELS 3 Zrotation Yrotation Xrotation
		JOINT LeftUpLeg
		{
			OFFSET 1.363060 -1.794630 0.839290
			CHANNELS 3 Zrotation Yrotation Xrotation
			JOINT LeftLeg
			{
				OFFSET 2.448110 -6.726130 0.000000
				CHANNELS 3 Zrotation Yrotation Xrotation
				JOINT LeftFoot
				{
					OFFSET 2.562200 -7.039590 0.000000
					CHANNELS 3 Zrotation Yrotation Xrotation
					JOINT LeftToeBase
					{
						OFFSET 0.157640 -0.433110 2.322550
						CHANNELS 3 Zrotation Yrotation Xrotation
						End Site
						{
							OFFSET 0.000000 0.000000 0.000000
						}
					}
				}
			}
		}
	}
	JOINT RHipJoint
	{
		OFFSET 0.000000 0.000000 0.000000
		CHANNELS 3 Zrotation Yrotation Xrotation
		JOINT RightUpLeg
		{
			OFFSET -1.305520 -1.794630 0.839290
			CHANNELS 3 Zrotation Yrotation Xrotation
			JOINT RightLeg
			{
				OFFSET -2.542530 -6.985550 0.000000
				CHANNELS 3 Zrotation Yrotation Xrotation
				JOINT RightFoot
				{
					OFFSET -2.568260 -7.056230 0.000000
					CHANNELS 3 Zrotation Yrotation Xrotation
					JOINT RightToeBase
					{
						OFFSET -0.164730 -0.452590 2.363150
						CHANNELS 3 Zrotation Yrotation Xrotation
						End Site
						{
							OFFSET 0.000000 0.000000 0.000000
						}
					}
				}
			}
		}
	}
	JOINT LowerBack
	{
		OFFSET 0.000000 0.000000 0.000000
		CHANNELS 3 Zrotation Yrotation Xrotation
		JOINT Spine
		{
			OFFSET 0.028270 2.035590 -0.193380
			CHANNELS 3 Zrotation Yrotation Xrotation
			JOINT Spine1
			{
				OFFSET 0.056720 2.048850 -0.042750
				CHANNELS 3 Zrotation Yrotation Xrotation
				JOINT Neck
				{
					OFFSET 0.000000 0.000000 0.000000
					CHANNELS 3 Zrotation Yrotation Xrotation
					JOINT Neck1
					{
						OFFSET -0.054170 1.746240 0.172020
						CHANNELS 3 Zrotation Yrotation Xrotation
						JOINT Head
						{
							OFFSET 0.104070 1.761360 -0.123970
							CHANNELS 3 Zrotation Yrotation Xrotation
							End Site
							{
								OFFSET 0.000000 0.000000 0.000000
							}
						}
					}
				}
				JOINT LeftShoulder
				{
					OFFSET 0.000000 0.000000 0.000000
					CHANNELS 3 Zrotation Yrotation Xrotation
					JOINT LeftArm
					{
						OFFSET 3.362410 1.200890 -0.311210
						CHANNELS 3 Zrotation Yrotation Xrotation
						JOINT LeftForeArm
						{
							OFFSET 4.983000 -0.000000 -0.000000
							CHANNELS 3 Zrotation Yrotation Xrotation
							JOINT LeftHand
							{
								OFFSET 3.483560 -0.000000 -0.000000
								CHANNELS 3 Zrotation Yrotation Xrotation
								JOINT LeftFingerBase
								{
									OFFSET 0.000000 0.000000 0.000000
									CHANNELS 3 Zrotation Yrotation Xrotation
									JOINT LeftHandIndex1
									{
										OFFSET 0.715260 -0.000000 -0.000000
										CHANNELS 3 Zrotation Yrotation Xrotation
										End Site
										{
											OFFSET 0.000000 0.000000 0.000000
										}
									}
								}
								JOINT LThumb
								{
									OFFSET 0.000000 0.000000 0.000000
									CHANNELS 3 Zrotation Yrotation Xrotation
									End Site
									{
										OFFSET 0.000000 0.000000 0.000000
									}
								}
							}
						}
					}
				}
				JOINT RightShoulder
				{
					OFFSET 0.000000 0.000000 0.000000
					CHANNELS 3 Zrotation Yrotation Xrotation
					JOINT RightArm
					{
						OFFSET -3.136600 1.374050 -0.404650
						CHANNELS 3 Zrotation Yrotation Xrotation
						JOINT RightForeArm
						{
							OFFSET -5.241900 -0.000000 -0.000000
							CHANNELS 3 Zrotation Yrotation Xrotation
							JOINT RightHand
							{
								OFFSET -3.444170 -0.000000 -0.000000
								CHANNELS 3 Zrotation Yrotation Xrotation
								JOINT RightFingerBase
								{
									OFFSET 0.000000 0.000000 0.000000
									CHANNELS 3 Zrotation Yrotation Xrotation
									JOINT RightHandIndex1
									{
										OFFSET -0.622530 -0.000000 -0.000000
										CHANNELS 3 Zrotation Yrotation Xrotation
										End Site
										{
											OFFSET 0.000000 0.000000 0.000000
										}
									}
								}
								JOINT RThumb
								{
									OFFSET 0.000000 0.000000 0.000000
									CHANNELS 3 Zrotation Yrotation Xrotation
									End Site
									{
										OFFSET 0.000000 0.000000 0.000000
									}
								}
							}
						}
					}
				}
			}
		}
	}
}
MOTION
Frames: 9
Frame Time: 0.008333
5.172756 17.553373 3.529919 -175.394814 -88.804956 -167.245090 -10.771126 1.336733 -0.036094 -8.811279 4.887043 -14.601214 -2.490906 -0.537706 7.756873 0.100306 -0.191528 -1.430519 0.127200 -0.000000 -39.404700 9.143107 -0.064623 -1.392298 10.921827 -6.093644 -38.423317 1.669016 -2.597458 35.973534 -1.877463 -8.215762 -3.961705 -1.139300 -0.000001 -40.051700 -1.886888 -2.378081 2.383123 -1.485199 -2.300054 -2.306636 -8.518743 -2.318035 0.913125 13.117816 -3.250584 -3.891208 -4.205376 -0.334157 0.827916 0.000000 0.000000 0.000000 -4.038125 1.060874 3.478593 -40.773344 -21.968661 14.472394 -2.980492 -51.986219 0.017451 -6.634150 0.668665 -0.028994 -0.099073 0.138621 0.000000 0.000000 0.000000 0.000000 0.000000 0.000000 0.000000 21.503760 -2.692121 1.435146 62.562952 0.286978 6.956705 3.495207 24.730412 0.007003 6.876853 4.110755 0.247562 0.042509 -0.028763 0.000000 0.000000 0.000000 0.000000 0.000000 0.000000 0.000000 
4.967438 17.543941 3.515986 164.232868 -89.697116 -146.830895 -10.704351 1.227746 -0.260537 -8.803075 5.323453 -13.453364 -2.553600 -0.629062 7.197715 -0.005171 -0.933281 -1.201211 0.070699 -0.000000 -40.147700 9.114836 -0.160702 -1.048304 10.558800 -5.587959 -38.865841 1.851464 -2.411632 32.812474 -1.928851 -8.416832 -3.241496 -1.336900 0.000000 -40.438400 -1.604922 -2.742803 2.332556 -1.450433 -2.689772 -2.283220 -8.525694 -2.695920 0.953672 13.206118 -3.654888 -3.957737 -4.194141 -0.333362 0.814921 0.000000 0.000000 0.000000 -3.644841 0.665192 3.519469 -39.461175 -22.825761 13.853117 -2.827697 -53.339915 0.019183 -6.569450 0.624192 -0.025296 -0.091575 0.153738 0.000000 0.000000 0.000000 0.000000 0.000000 0.000000 0.000000 21.591785 -3.296062 1.407390 62.618190 -0.713405 6.979072 3.505985 25.001634 0.006399 7.085725 4.033233 0.250142 0.041654 -0.024287 0.000000 0.000000 0.000000 0.000000 0.000000 0.000000 0.000000 
4.763105 17.527799 3.499203 -55.659836 -89.517034 73.074450 -10.146880 1.386080 -0.494042 -8.641842 5.794701 -12.311195 -2.646033 -0.652484 6.624701 -0.074218 -1.563957 -1.105399 0.017300 0.000000 -40.936000 9.545639 0.089105 -0.711389 10.301006 -5.007547 -39.114618 1.954162 -2.126826 29.555482 -1.937435 -8.540943 -2.311008 -1.557000 0.000000 -40.874500 -0.875285 -2.939043 2.305011 -1.317358 -2.929587 -2.261850 -8.557879 -2.927130 1.015630 13.293594 -4.140408 -4.061503 -4.177872 -0.331639 0.792387 0.000000 0.000000 0.000000 -3.230575 0.374204 3.501909 -38.130221 -23.691770 13.150896 -2.663613 -54.577012 0.020825 -6.517884 0.590564 -0.022414 -0.082211 0.168401 0.000000 0.000000 0.000000 0.000000 0.000000 0.000000 0.000000 21.669680 -3.899102 1.397209 62.610558 -1.577234 7.111671 3.521224 25.272894 0.006029 7.217781 4.021179 0.253833 0.041996 -0.020936 -0.000000 0.000000 0.000000 0.000000 0.000000 0.000000 0.000000 
4.559245 17.504823 3.479871 -81.976265 -89.560780 99.376169 -9.963280 1.653439 -0.650172 -8.666310 6.271633 -11.183867 -2.719341 -0.610502 6.012566 -0.111335 -2.045322 -1.098326 -0.030000 -0.000001 -41.758300 9.705220 0.469750 -0.461907 9.854305 -4.448201 -39.278860 2.013521 -1.747139 26.325928 -1.884384 -8.484529 -1.238349 -1.779900 0.000000 -41.296700 -0.754698 -2.988823 2.283160 -1.280242 -2.985624 -2.241758 -8.565057 -2.977608 1.069884 13.378057 -4.646079 -4.168775 -4.154956 -0.329478 0.768081 0.000000 0.000000 0.000000 -2.779930 0.182361 3.451277 -36.745876 -24.496904 12.379905 -2.497345 -55.725487 0.022226 -6.482880 0.572631 -0.020651 -0.071908 0.181261 -0.000000 0.000000 0.000000 0.000000 0.000000 0.000000 0.000000 21.735319 -4.442916 1.390555 62.594646 -2.394524 7.192240 3.528889 25.576117 0.005843 7.318963 4.042228 0.258630 0.042373 -0.018882 0.000000 0.000000 0.000000 0.000000 0.000000 0.000000 0.000000 
4.354282 17.477428 3.462558 42.465536 -89.791629 -25.044621 -10.340740 1.936453 -0.502438 -8.640414 5.803233 -10.353609 -2.703972 -0.502663 5.765037 -0.119606 -2.395722 -1.325633 -0.067400 0.000000 -42.576000 9.419638 0.845494 -0.495541 9.550415 -4.967178 -39.449710 2.185163 -1.305651 23.005289 -1.733021 -8.101383 -0.109944 -1.958300 0.000000 -41.637200 -1.078723 -3.172119 2.240841 -1.292076 -3.154324 -2.219326 -8.529569 -3.145244 1.126292 13.444887 -5.158817 -4.262022 -4.133125 -0.327658 0.751634 0.000000 0.000000 0.000000 -2.386921 -0.082985 3.428459 -35.292589 -25.267415 11.564706 -2.350145 -56.764955 0.023851 -6.470773 0.566894 -0.019586 -0.061400 0.195619 -0.000000 0.000000 0.000000 0.000000 0.000000 0.000000 0.000000 21.789485 -5.086740 1.351238 62.521756 -3.222732 7.173635 3.524612 25.933479 0.005574 7.406903 4.086187 0.264425 0.042004 -0.016620 0.000000 0.000000 0.000000 0.000000 0.000000 0.000000 0.000000 
4.150287 17.441347 3.438864 49.989879 -89.447354 -32.629105 -10.219848 2.024080 -0.696917 -8.778234 6.071477 -9.070562 -2.768354 -0.521040 5.275002 -0.158638 -2.791804 -1.425670 -0.094200 -0.000000 -43.439400 9.529344 1.020849 -0.260863 8.917617 -4.784600 -39.607010 2.288623 -0.982355 19.685475 -1.615578 -7.754709 1.026668 -2.103600 -0.000000 -42.004600 -1.141466 -3.344641 2.277583 -1.305319 -3.327580 -2.181678 -8.502626 -3.310161 1.179889 13.500428 -5.680834 -4.353481 -4.104852 -0.325401 0.730043 0.000000 0.000000 0.000000 -1.891878 -0.336280 3.382121 -33.847639 -25.984232 10.694662 -2.198203 -57.677611 0.025326 -6.480049 0.579172 -0.019637 -0.050071 0.208393 -0.000000 0.000000 0.000000 0.000000 0.000000 0.000000 0.000000 21.814381 -5.717737 1.318415 62.513919 -4.057839 7.038885 3.522823 26.325455 0.005370 7.488973 4.151071 0.271420 0.042069 -0.014531 0.000000 0.000000 0.000000 0.000000 0.000000 0.000000 0.000000 
3.945406 17.399051 3.413963 55.854686 -89.071313 -38.560344 -10.119019 2.104588 -0.882314 -8.941494 6.281942 -7.771856 -2.828128 -0.540540 4.819279 -0.189635 -3.121540 -1.585254 -0.112100 0.000000 -44.324800 9.630579 1.191655 -0.041707 8.262216 -4.706035 -39.764181 2.393867 -0.653672 16.373287 -1.453570 -7.208196 2.152292 -2.179000 -0.000000 -42.409700 -1.270130 -3.507954 2.319923 -1.330455 -3.488511 -2.140128 -8.461191 -3.462652 1.242751 13.536579 -6.253077 -4.457486 -4.071111 -0.322681 0.705023 0.000000 0.000000 0.000000 -1.392782 -0.558391 3.320202 -32.398528 -26.668940 9.778679 -2.051337 -58.475559 0.026817 -6.513178 0.601163 -0.020395 -0.037991 0.220579 -0.000000 0.000000 0.000000 0.000000 0.000000 0.000000 0.000000 21.807449 -6.397548 1.279938 62.492882 -4.826233 6.875720 3.520619 26.719814 0.005257 7.543151 4.250872 0.279818 0.042447 -0.012822 0.000000 0.000000 0.000000 0.000000 0.000000 0.000000 0.000000 
3.739457 17.351126 3.388229 60.561004 -88.678754 -43.338207 -10.028873 2.183337 -1.056088 -9.120157 6.438649 -6.465722 -2.883083 -0.559759 4.394339 -0.213180 -3.387468 -1.789955 -0.121800 0.000000 -45.231400 9.728713 1.364070 0.163258 7.606434 -4.715690 -39.927043 2.502695 -0.321218 13.083774 -1.247386 -6.451313 3.246201 -2.168800 0.000000 -42.937800 -1.438063 -3.657769 2.362613 -1.362667 -3.634345 -2.099604 -8.409858 -3.600823 1.301686 13.553655 -6.812831 -4.556861 -4.034483 -0.319817 0.681273 0.000000 0.000000 0.000000 -0.904433 -0.757868 3.251457 -30.942735 -27.299938 8.827113 -1.911212 -59.173995 0.028319 -6.563971 0.634744 -0.021960 -0.025573 0.232157 -0.000000 0.000000 0.000000 0.000000 0.000000 0.000000 0.000000 21.770382 -7.054848 1.238754 62.472546 -5.616684 6.556343 3.519455 27.159841 0.005191 7.614587 4.350084 0.289019 0.042886 -0.011401 0.000000 0.000000 0.000000 0.000000 0.000000 0.000000 0.000000 
3.531917 17.298111 3.362009 64.382037 -88.279165 -47.224081 -9.945741 2.262183 -1.216399 -9.305941 6.551317 -5.179023 -2.933996 -0.577157 4.016071 -0.231233 -3.607447 -2.029305 -0.125600 0.000000 -46.159700 9.823575 1.540617 0.358153 6.967581 -4.794292 -40.110148 2.615970 0.013385 9.829988 -1.002376 -5.493029 4.294740 -2.066100 0.000000 -43.667500 -1.626683 -3.794567 2.398477 -1.397221 -3.766441 -2.057863 -8.346285 -3.725469 1.371161 13.551452 -7.425558 -4.673976 -3.993105 -0.316468 0.653000 0.000000 0.000000 0.000000 -0.424852 -0.917973 3.168050 -29.512221 -27.895171 7.836655 -1.777419 -59.767238 0.029853 -6.631976 0.675412 -0.024031 -0.012665 0.243120 -0.000000 0.000000 0.000000 0.000000 0.000000 0.000000 0.000000 21.704128 -7.759919 1.195150 62.426402 -6.326606 6.226975 3.519680 27.592903 0.005231 7.658647 4.476899 0.299021 0.043753 -0.010373 0.000000 0.000000 0.000000 0.000000 0.000000 0.000000 0.000000 
